<svg width="17" height="19" viewBox="0 0 17 19" fill="none" xmlns="http://www.w3.org/2000/svg">
<path d="M11.5253 16.9177V15.6677H14.5782C14.6423 15.6677 14.7011 15.6409 14.7544 15.5874C14.8079 15.5341 14.8346 15.4754 14.8346 15.4112V7.59078H3.16797V10.876H1.91797V4.25745C1.91797 3.83648 2.0638 3.48016 2.35547 3.18849C2.64714 2.89682 3.00346 2.75099 3.42443 2.75099H4.57818V0.988281H5.86026V2.75099H12.1744V0.988281H13.4244V2.75099H14.5782C14.9992 2.75099 15.3555 2.89682 15.6471 3.18849C15.9388 3.48016 16.0846 3.83648 16.0846 4.25745V15.4112C16.0846 15.8322 15.9388 16.1885 15.6471 16.4802C15.3555 16.7718 14.9992 16.9177 14.5782 16.9177H11.5253ZM5.66797 18.7045L4.79776 17.8343L7.14401 15.4593H0.0429688V14.2093H7.14401L4.79776 11.8343L5.66797 10.9641L9.53818 14.8343L5.66797 18.7045ZM3.16797 6.34078H14.8346V4.25745C14.8346 4.19328 14.8079 4.13453 14.7544 4.0812C14.7011 4.02772 14.6423 4.00099 14.5782 4.00099H3.42443C3.36026 4.00099 3.30151 4.02772 3.24818 4.0812C3.19471 4.13453 3.16797 4.19328 3.16797 4.25745V6.34078Z" fill="#686465"/>
</svg>
