<svg width="20" height="20" viewBox="0 0 20 20" fill="none" xmlns="http://www.w3.org/2000/svg">
<path d="M16.475 9.37435H13.1083C11.4333 9.37435 10.625 8.63268 10.625 7.09935V3.31602C10.625 1.78268 11.4417 1.04102 13.1083 1.04102H16.475C18.15 1.04102 18.9583 1.78268 18.9583 3.31602V7.09102C18.9583 8.63268 18.1417 9.37435 16.475 9.37435ZM13.1083 2.29102C11.9917 2.29102 11.875 2.60768 11.875 3.31602V7.09102C11.875 7.80768 11.9917 8.11602 13.1083 8.11602H16.475C17.5917 8.11602 17.7083 7.79935 17.7083 7.09102V3.31602C17.7083 2.59935 17.5917 2.29102 16.475 2.29102H13.1083Z" fill="#686465"/>
<path d="M16.475 18.9583H13.1083C11.4333 18.9583 10.625 18.1417 10.625 16.475V13.1083C10.625 11.4333 11.4417 10.625 13.1083 10.625H16.475C18.15 10.625 18.9583 11.4417 18.9583 13.1083V16.475C18.9583 18.1417 18.1417 18.9583 16.475 18.9583ZM13.1083 11.875C12.125 11.875 11.875 12.125 11.875 13.1083V16.475C11.875 17.4583 12.125 17.7083 13.1083 17.7083H16.475C17.4583 17.7083 17.7083 17.4583 17.7083 16.475V13.1083C17.7083 12.125 17.4583 11.875 16.475 11.875H13.1083Z" fill="#686465"/>
<path d="M6.89102 9.37435H3.52435C1.84935 9.37435 1.04102 8.63268 1.04102 7.09935V3.31602C1.04102 1.78268 1.85768 1.04102 3.52435 1.04102H6.89102C8.56602 1.04102 9.37435 1.78268 9.37435 3.31602V7.09102C9.37435 8.63268 8.55768 9.37435 6.89102 9.37435ZM3.52435 2.29102C2.40768 2.29102 2.29102 2.60768 2.29102 3.31602V7.09102C2.29102 7.80768 2.40768 8.11602 3.52435 8.11602H6.89102C8.00768 8.11602 8.12435 7.79935 8.12435 7.09102V3.31602C8.12435 2.59935 8.00768 2.29102 6.89102 2.29102H3.52435Z" fill="#686465"/>
<path d="M6.89102 18.9583H3.52435C1.84935 18.9583 1.04102 18.1417 1.04102 16.475V13.1083C1.04102 11.4333 1.85768 10.625 3.52435 10.625H6.89102C8.56602 10.625 9.37435 11.4417 9.37435 13.1083V16.475C9.37435 18.1417 8.55768 18.9583 6.89102 18.9583ZM3.52435 11.875C2.54102 11.875 2.29102 12.125 2.29102 13.1083V16.475C2.29102 17.4583 2.54102 17.7083 3.52435 17.7083H6.89102C7.87435 17.7083 8.12435 17.4583 8.12435 16.475V13.1083C8.12435 12.125 7.87435 11.875 6.89102 11.875H3.52435Z" fill="#686465"/>
</svg>
