<svg width="22" height="22" viewBox="0 0 22 22" fill="none" xmlns="http://www.w3.org/2000/svg">
<path d="M3.80234 11.0602H1.40234M3.80234 11.0602C3.80234 11.6967 4.0552 12.3071 4.50529 12.7572C4.95537 13.2073 5.56582 13.4602 6.20234 13.4602C6.83886 13.4602 7.44931 13.2073 7.8994 12.7572C8.34949 12.3071 8.60234 11.6967 8.60234 11.0602M3.80234 11.0602C3.80234 10.4236 4.0552 9.81319 4.50529 9.3631C4.95537 8.91301 5.56582 8.66016 6.20234 8.66016C6.83886 8.66016 7.44931 8.91301 7.8994 9.3631C8.34949 9.81319 8.60234 10.4236 8.60234 11.0602M18.2023 18.2602C18.2023 17.6236 17.9495 17.0132 17.4994 16.5631C17.0493 16.113 16.4389 15.8602 15.8023 15.8602C15.1658 15.8602 14.5554 16.113 14.1053 16.5631C13.6552 17.0132 13.4023 17.6236 13.4023 18.2602M18.2023 18.2602C18.2023 18.8967 17.9495 19.5071 17.4994 19.9572C17.0493 20.4073 16.4389 20.6602 15.8023 20.6602C15.1658 20.6602 14.5554 20.4073 14.1053 19.9572C13.6552 19.5071 13.4023 18.8967 13.4023 18.2602M18.2023 18.2602H20.6023M13.4023 18.2602H1.40234M8.60234 11.0602L20.6023 11.0602M18.2023 3.86016C18.2023 3.22364 17.9495 2.61319 17.4994 2.1631C17.0493 1.71301 16.4389 1.46016 15.8023 1.46016C15.1658 1.46016 14.5554 1.71301 14.1053 2.1631C13.6552 2.61319 13.4023 3.22364 13.4023 3.86016M18.2023 3.86016C18.2023 4.49668 17.9495 5.10713 17.4994 5.55721C17.0493 6.0073 16.4389 6.26016 15.8023 6.26016C15.1658 6.26016 14.5554 6.0073 14.1053 5.55721C13.6552 5.10713 13.4023 4.49668 13.4023 3.86016M18.2023 3.86016H20.6023M13.4023 3.86016H1.40234" stroke="#686465" stroke-width="2" stroke-linecap="round" stroke-linejoin="round"/>
</svg>
