<svg width="20" height="20" viewBox="0 0 20 20" fill="none" xmlns="http://www.w3.org/2000/svg">
<path d="M10.0175 2.42578C7.25914 2.42578 5.01747 4.66745 5.01747 7.42578V9.83411C5.01747 10.3424 4.80081 11.1174 4.54247 11.5508L3.58414 13.1424C2.99247 14.1258 3.40081 15.2174 4.48414 15.5841C8.07581 16.7841 11.9508 16.7841 15.5425 15.5841C16.5508 15.2508 16.9925 14.0591 16.4425 13.1424L15.4841 11.5508C15.2341 11.1174 15.0175 10.3424 15.0175 9.83411V7.42578C15.0175 4.67578 12.7675 2.42578 10.0175 2.42578Z" stroke="#686465" stroke-width="1.5" stroke-miterlimit="10" stroke-linecap="round"/>
<path d="M11.5579 2.66719C11.2996 2.59219 11.0329 2.53385 10.7579 2.50052C9.95794 2.40052 9.19128 2.45885 8.47461 2.66719C8.71628 2.05052 9.31628 1.61719 10.0163 1.61719C10.7163 1.61719 11.3163 2.05052 11.5579 2.66719Z" stroke="#686465" stroke-width="1.5" stroke-miterlimit="10" stroke-linecap="round" stroke-linejoin="round"/>
<path d="M12.5176 15.8828C12.5176 17.2578 11.3926 18.3828 10.0176 18.3828C9.33425 18.3828 8.70091 18.0995 8.25091 17.6495C7.80091 17.1995 7.51758 16.5661 7.51758 15.8828" stroke="#686465" stroke-width="1.5" stroke-miterlimit="10"/>
</svg>
