<svg width="18" height="19" viewBox="0 0 18 19" fill="none" xmlns="http://www.w3.org/2000/svg">
<path d="M16.4775 14.2475C16.4775 14.5175 16.4175 14.795 16.29 15.065C16.1625 15.335 15.9975 15.59 15.78 15.83C15.4125 16.235 15.0075 16.5275 14.55 16.715C14.1 16.9025 13.6125 17 13.0875 17C12.3225 17 11.505 16.82 10.6425 16.4525C9.78 16.085 8.9175 15.59 8.0625 14.9675C7.2 14.3375 6.3825 13.64 5.6025 12.8675C4.83 12.0875 4.1325 11.27 3.51 10.415C2.895 9.56 2.4 8.705 2.04 7.8575C1.68 7.0025 1.5 6.185 1.5 5.405C1.5 4.895 1.59 4.4075 1.77 3.9575C1.95 3.5 2.235 3.08 2.6325 2.705C3.1125 2.2325 3.6375 2 4.1925 2C4.4025 2 4.6125 2.045 4.8 2.135C4.995 2.225 5.1675 2.36 5.3025 2.555L7.0425 5.0075C7.1775 5.195 7.275 5.3675 7.3425 5.5325C7.41 5.69 7.4475 5.8475 7.4475 5.99C7.4475 6.17 7.395 6.35 7.29 6.5225C7.1925 6.695 7.05 6.875 6.87 7.055L6.3 7.6475C6.2175 7.73 6.18 7.8275 6.18 7.9475C6.18 8.0075 6.1875 8.06 6.2025 8.12C6.225 8.18 6.2475 8.225 6.2625 8.27C6.3975 8.5175 6.63 8.84 6.96 9.23C7.2975 9.62 7.6575 10.0175 8.0475 10.415C8.4525 10.8125 8.8425 11.18 9.24 11.5175C9.63 11.8475 9.9525 12.0725 10.2075 12.2075C10.245 12.2225 10.29 12.245 10.3425 12.2675C10.4025 12.29 10.4625 12.2975 10.53 12.2975C10.6575 12.2975 10.755 12.2525 10.8375 12.17L11.4075 11.6075C11.595 11.42 11.775 11.2775 11.9475 11.1875C12.12 11.0825 12.2925 11.03 12.48 11.03C12.6225 11.03 12.7725 11.06 12.9375 11.1275C13.1025 11.195 13.275 11.2925 13.4625 11.42L15.945 13.1825C16.14 13.3175 16.275 13.475 16.3575 13.6625C16.4325 13.85 16.4775 14.0375 16.4775 14.2475Z" stroke="#AEAAAB" stroke-width="1.5" stroke-miterlimit="10"/>
</svg>
