<svg width="16" height="12" viewBox="0 0 16 12" fill="none" xmlns="http://www.w3.org/2000/svg">
<path d="M3.74563 9C3.95688 9 4.13542 8.92854 4.28125 8.78563C4.42708 8.64271 4.5 8.46562 4.5 8.25438C4.5 8.04313 4.42854 7.86458 4.28562 7.71875C4.14271 7.57292 3.96563 7.5 3.75437 7.5C3.54312 7.5 3.36458 7.57146 3.21875 7.71438C3.07292 7.85729 3 8.03438 3 8.24563C3 8.45688 3.07146 8.63542 3.21438 8.78125C3.35729 8.92708 3.53438 9 3.74563 9ZM3 6.5H4.5V3H3V6.5ZM7 8.5H13V7H7V8.5ZM7 5H13V3.5H7V5ZM1.5 12C1.0875 12 0.734375 11.8531 0.440625 11.5592C0.146875 11.2653 0 10.9119 0 10.4992V1.49417C0 1.08139 0.146875 0.729167 0.440625 0.4375C0.734375 0.145833 1.0875 0 1.5 0H14.5C14.9125 0 15.2656 0.146944 15.5594 0.440833C15.8531 0.734722 16 1.08806 16 1.50083V10.5058C16 10.9186 15.8531 11.2708 15.5594 11.5625C15.2656 11.8542 14.9125 12 14.5 12H1.5ZM1.5 10.5H14.5V1.5H1.5V10.5Z" fill="#686465"/>
</svg>
