 <svg width="17" height="18" viewBox="0 0 17 18" fill="none" xmlns="http://www.w3.org/2000/svg">
<path d="M7.77383 16.3953C3.48874 16.3953 0 12.9066 0 8.62148C0 4.3364 3.48874 0.847656 7.77383 0.847656C12.0589 0.847656 15.5477 4.3364 15.5477 8.62148C15.5477 12.9066 12.0589 16.3953 7.77383 16.3953ZM7.77383 1.98529C4.11065 1.98529 1.13763 4.96589 1.13763 8.62148C1.13763 12.2771 4.11065 15.2577 7.77383 15.2577C11.437 15.2577 14.41 12.2771 14.41 8.62148C14.41 4.96589 11.437 1.98529 7.77383 1.98529Z" fill="#828282"/>
<path d="M15.7381 17.1526C15.594 17.1526 15.4499 17.0995 15.3361 16.9857L13.8193 15.4689C13.5993 15.2489 13.5993 14.8849 13.8193 14.665C14.0392 14.445 14.4032 14.445 14.6232 14.665L16.14 16.1818C16.36 16.4017 16.36 16.7658 16.14 16.9857C16.0263 17.0995 15.8822 17.1526 15.7381 17.1526Z" fill="#828282"/>
</svg>