<svg width="20" height="20" viewBox="0 0 20 20" fill="none" xmlns="http://www.w3.org/2000/svg">
<path d="M5.9375 15.0625C6.6875 14.5347 7.48958 14.1424 8.34375 13.8854C9.19792 13.6285 10.0833 13.5 11 13.5C11.9167 13.5 12.8021 13.6285 13.6562 13.8854C14.5104 14.1424 15.3125 14.5347 16.0625 15.0625C16.5486 14.4931 16.9097 13.8611 17.1458 13.1667C17.3819 12.4722 17.5 11.75 17.5 11C17.5 9.19903 16.8665 7.66542 15.5994 6.39917C14.3323 5.13305 12.7976 4.5 10.9952 4.5C9.19285 4.5 7.65972 5.13305 6.39583 6.39917C5.13194 7.66542 4.5 9.19903 4.5 11C4.5 11.75 4.61806 12.4722 4.85417 13.1667C5.09028 13.8611 5.45139 14.4931 5.9375 15.0625ZM11 12.5C10.1667 12.5 9.45833 12.2083 8.875 11.625C8.29167 11.0417 8 10.3333 8 9.5C8 8.66667 8.29167 7.95833 8.875 7.375C9.45833 6.79167 10.1667 6.5 11 6.5C11.8333 6.5 12.5417 6.79167 13.125 7.375C13.7083 7.95833 14 8.66667 14 9.5C14 10.3333 13.7083 11.0417 13.125 11.625C12.5417 12.2083 11.8333 12.5 11 12.5ZM11.0058 19C9.90472 19 8.86806 18.7917 7.89583 18.375C6.92361 17.9583 6.07292 17.3854 5.34375 16.6562C4.61458 15.9271 4.04167 15.0767 3.625 14.105C3.20833 13.1333 3 12.0951 3 10.9904C3 9.88569 3.20833 8.85069 3.625 7.88542C4.04167 6.92014 4.61458 6.07292 5.34375 5.34375C6.07292 4.61458 6.92333 4.04167 7.895 3.625C8.86667 3.20833 9.90486 3 11.0096 3C12.1143 3 13.1493 3.20833 14.1146 3.625C15.0799 4.04167 15.9271 4.61458 16.6562 5.34375C17.3854 6.07292 17.9583 6.92167 18.375 7.89C18.7917 8.85847 19 9.89319 19 10.9942C19 12.0953 18.7917 13.1319 18.375 14.1042C17.9583 15.0764 17.3854 15.9271 16.6562 16.6562C15.9271 17.3854 15.0783 17.9583 14.11 18.375C13.1415 18.7917 12.1068 19 11.0058 19ZM11 17.5C11.7222 17.5 12.4167 17.3854 13.0833 17.1562C13.75 16.9271 14.375 16.5903 14.9583 16.1458C14.3611 15.7708 13.7292 15.4861 13.0625 15.2917C12.3958 15.0972 11.7083 15 11 15C10.2917 15 9.60069 15.0938 8.92708 15.2812C8.25347 15.4688 7.625 15.7569 7.04167 16.1458C7.625 16.5903 8.25 16.9271 8.91667 17.1562C9.58333 17.3854 10.2778 17.5 11 17.5ZM11 11C11.4167 11 11.7708 10.8542 12.0625 10.5625C12.3542 10.2708 12.5 9.91667 12.5 9.5C12.5 9.08333 12.3542 8.72917 12.0625 8.4375C11.7708 8.14583 11.4167 8 11 8C10.5833 8 10.2292 8.14583 9.9375 8.4375C9.64583 8.72917 9.5 9.08333 9.5 9.5C9.5 9.91667 9.64583 10.2708 9.9375 10.5625C10.2292 10.8542 10.5833 11 11 11Z" fill="#686465"/>
</svg>
