<svg width="20" height="20" viewBox="0 0 20 20" fill="none" xmlns="http://www.w3.org/2000/svg">
<path d="M8.37526 2.10873L3.35859 5.38373C1.75026 6.43373 1.75026 8.78373 3.35859 9.83373L8.37526 13.1087C9.27526 13.7004 10.7586 13.7004 11.6586 13.1087L16.6503 9.83373C18.2503 8.78373 18.2503 6.44206 16.6503 5.39206L11.6586 2.11706C10.7586 1.51706 9.27526 1.51706 8.37526 2.10873Z" stroke="#686465" stroke-width="1.2" stroke-linecap="round" stroke-linejoin="round"/>
<path d="M4.69193 10.9004L4.68359 14.8087C4.68359 15.8671 5.50026 17.0004 6.50026 17.3337L9.15859 18.2171C9.61693 18.3671 10.3753 18.3671 10.8419 18.2171L13.5003 17.3337C14.5003 17.0004 15.3169 15.8671 15.3169 14.8087V10.9421" stroke="#686465" stroke-width="1.2" stroke-linecap="round" stroke-linejoin="round"/>
<path d="M17.834 12.5V7.5" stroke="#686465" stroke-width="1.2" stroke-linecap="round" stroke-linejoin="round"/>
</svg>
