<svg width="20" height="20" viewBox="0 0 20 20" fill="none" xmlns="http://www.w3.org/2000/svg">
<path d="M7.63216 9.68268C7.60716 9.68268 7.5905 9.68268 7.5655 9.68268C7.52383 9.67435 7.46549 9.67435 7.41549 9.68268C4.99883 9.60768 3.17383 7.70768 3.17383 5.36602C3.17383 2.98268 5.11549 1.04102 7.49883 1.04102C9.88216 1.04102 11.8238 2.98268 11.8238 5.36602C11.8155 7.70768 9.98216 9.60768 7.65716 9.68268C7.64883 9.68268 7.64049 9.68268 7.63216 9.68268ZM7.49883 2.29102C5.80716 2.29102 4.42383 3.67435 4.42383 5.36602C4.42383 7.03268 5.72383 8.37435 7.38216 8.43268C7.43216 8.42435 7.5405 8.42435 7.64883 8.43268C9.28216 8.35768 10.5655 7.01602 10.5738 5.36602C10.5738 3.67435 9.1905 2.29102 7.49883 2.29102Z" fill="#686465"/>
<path d="M13.784 9.79232C13.759 9.79232 13.734 9.79232 13.709 9.78398C13.3673 9.81732 13.0173 9.57565 12.984 9.23398C12.9506 8.89232 13.159 8.58398 13.5006 8.54232C13.6006 8.53398 13.709 8.53398 13.8006 8.53398C15.0173 8.46732 15.9673 7.46732 15.9673 6.24232C15.9673 4.97565 14.9423 3.95065 13.6756 3.95065C13.334 3.95898 13.0506 3.67565 13.0506 3.33398C13.0506 2.99232 13.334 2.70898 13.6756 2.70898C15.6256 2.70898 17.2173 4.30065 17.2173 6.25065C17.2173 8.16732 15.7173 9.71732 13.809 9.79232C13.8006 9.79232 13.7923 9.79232 13.784 9.79232Z" fill="#686465"/>
<path d="M7.64036 18.7923C6.00703 18.7923 4.36536 18.3757 3.1237 17.5423C1.96536 16.7757 1.33203 15.7257 1.33203 14.584C1.33203 13.4423 1.96536 12.384 3.1237 11.609C5.6237 9.95065 9.6737 9.95065 12.157 11.609C13.307 12.3757 13.9487 13.4257 13.9487 14.5673C13.9487 15.709 13.3154 16.7673 12.157 17.5423C10.907 18.3757 9.2737 18.7923 7.64036 18.7923ZM3.81536 12.659C3.01536 13.1923 2.58203 13.8757 2.58203 14.5923C2.58203 15.3007 3.0237 15.984 3.81536 16.509C5.89036 17.9007 9.39036 17.9007 11.4654 16.509C12.2654 15.9757 12.6987 15.2923 12.6987 14.5757C12.6987 13.8673 12.257 13.184 11.4654 12.659C9.39036 11.2757 5.89036 11.2757 3.81536 12.659Z" fill="#686465"/>
<path d="M15.2825 17.2917C14.9908 17.2917 14.7325 17.0917 14.6742 16.7917C14.6075 16.45 14.8242 16.125 15.1575 16.05C15.6825 15.9417 16.1658 15.7333 16.5408 15.4417C17.0158 15.0833 17.2742 14.6333 17.2742 14.1583C17.2742 13.6833 17.0158 13.2333 16.5492 12.8833C16.1825 12.6 15.7242 12.4 15.1825 12.275C14.8492 12.2 14.6325 11.8667 14.7075 11.525C14.7825 11.1917 15.1158 10.975 15.4575 11.05C16.1742 11.2083 16.7992 11.4917 17.3075 11.8833C18.0825 12.4667 18.5242 13.2917 18.5242 14.1583C18.5242 15.025 18.0742 15.85 17.2992 16.4417C16.7825 16.8417 16.1325 17.1333 15.4158 17.275C15.3658 17.2917 15.3242 17.2917 15.2825 17.2917Z" fill="#686465"/>
</svg>
